# AST/ASF file generated using VICON BodyLanguage
# -----------------------------------------------
:version 1.10
:name VICON
:units
  mass 1.0
  length 0.45
  angle deg
:documentation
   .ast/.asf automatically generated from VICON data using
   VICON BodyBuilder and BodyLanguage model FoxedUp or BRILLIANT.MOD
:root
   order TX TY TZ RX RY RZ
   axis XYZ
   position 0 0 0  
   orientation 0 0 0 
:bonedata
  begin
     id 1 
     name lhipjoint
     direction 0.612567 -0.751349 0.245431 
     length 2.42285 
     axis 0 0 0  XYZ
  end
  begin
     id 2 
     name lfemur
     direction 0.34202 -0.939693 0  
     length 7.11304  
     axis 0 0 20  XYZ
    dof rx ry rz
    limits (-160.0 20.0)
           (-70.0 70.0)
           (-60.0 70.0)
  end
  begin
     id 3 
     name ltibia
     direction 0.34202 -0.939693 0   
     length 7.84529   
     axis 0 0 20   XYZ
    dof rx
    limits (-10.0 170.0)
  end
  begin
     id 4 
     name lfoot
     direction 0.0779239 -0.214094 0.9737   
     length 1.97176   
     axis -90 7.62852e-016 20   XYZ
    dof rx rz
    limits (-45.0 90.0)
           (-70.0 20.0)
  end
  begin
     id 5 
     name ltoes
     direction 1.53565e-011 -4.21709e-011 1   
     length 0.993197   
     axis -90 7.62852e-016 20   XYZ
    dof rx
    limits (-90.0 20.0)
  end
  begin
     id 6 
     name rhipjoint
     direction -0.665722 -0.709315 0.231701   
     length 2.56642  
     axis 0 0 0  XYZ 
  end
  begin
     id 7 
     name rfemur
     direction -0.34202 -0.939693 0   
     length 7.32108   
     axis 0 0 -20   XYZ
    dof rx ry rz
    limits (-160.0 20.0)
           (-70.0 70.0)
           (-70.0 60.0)
  end
  begin
     id 8 
     name rtibia
     direction -0.34202 -0.939693 0   
     length 7.81254   
     axis 0 0 -20   XYZ
    dof rx
    limits (-10.0 170.0)
 end
 begin
     id 9 
     name rfoot
     direction -0.0832806 -0.228812 0.969902   
     length 2.08278  
     axis -90 -7.62852e-016 -20   XYZ
    dof rx rz
    limits (-45.0 90.0)
           (-20.0 70.0)
  end
  begin
     id 10 
     name rtoes
     direction -1.53589e-011 -4.22086e-011 1   
     length 1.04609   
     axis -90 -7.62852e-016 -20   XYZ
    dof rx
    limits (-90.0 20.0)
  end
  begin
     id 11 
     name lowerback
     direction -0.00506013 0.988403 -0.151766   
     length 2.01978   
     axis 0 0 0   XYZ
    dof rx ry rz
    limits (-20.0 45.0)
           (-30.0 30.0)
           (-30.0 30.0)
  end
  begin
     id 12 
     name upperback
     direction -0.00836389 0.99968 0.0238859   
     length 2.01276   
     axis 0 0 0   XYZ
    dof rx ry rz
    limits (-20.0 45.0)
           (-30.0 30.0)
           (-30.0 30.0)
  end
  begin
     id 13 
     name thorax
     direction -0.00684136 0.995386 0.0957043   
     length 2.07303   
     axis 0 0 0   XYZ
    dof rx ry rz
    limits (-20.0 45.0)
           (-30.0 30.0)
           (-30.0 30.0)
  end
  begin
     id 14 
     name lowerneck
     direction -0.0161045 0.999661 0.0204485   
     length 1.91243   
     axis 0 0 0   XYZ
    dof rx ry rz
    limits (-20.0 45.0)
           (-30.0 30.0)
           (-30.0 30.0)
  end
  begin
     id 15 
     name upperneck
     direction 0.0553583 0.990946 -0.122319   
     length 1.91574   
     axis 0 0 0   XYZ
    dof rx ry rz
    limits (-20.0 45.0)
           (-30.0 30.0)
           (-30.0 30.0)
  end
  begin
     id 16
     name head
     direction 0.0180273 0.998839 -0.0446756  
     length 1.92693  
     axis 0 0 0   XYZ
    dof rx ry rz
    limits (-20.0 45.0)
           (-30.0 30.0)
           (-30.0 30.0)
  end
  begin
     id 17 
     name lclavicle
     direction 0.945646 0.319323 -0.0615358  
     length 4.0076  
     axis 0 0 0   XYZ
    dof ry rz
    limits (-20.0 10.0)
           (0.0 20.0)
  end
  begin
     id 18 
     name lhumerus
     direction 1 -4.48967e-011 -2.79996e-027   
     length 5.64147   
     axis 180 -30 -90   XYZ
    dof rx ry rz
    limits (-60.0 90.0)
           (-90.0 90.0)
           (-90.0 90.0)
  end
  begin
     id 19
     name lradius
     direction 1 -4.48976e-011 -9.5122e-027   
     length 2.86444   
     axis 180 -30 -90   XYZ
    dof rx
    limits (-10.0 170.0)
  end
  begin
     id 20
     name lwrist
     direction 1 -4.48983e-011 -1.24047e-026   
     length 1.43222   
     axis 9.05591e-015 90 90   XYZ
    dof ry
    limits (-180.0 0.0)
 end
  begin
     id 21 
     name lhand
     direction 1 -4.4892e-011 -2.48094e-026   
     length 0.722123   
     axis 1.58305e-014 90 90   XYZ
    dof rx rz
    limits (-90.0 90.0)
           (-45.0 45.0)
  end
  begin
     id 22 
     name lfingers
     direction 1 -4.48895e-011 -4.96187e-026   
     length 0.582194   
     axis 3.1661e-014 90 90   XYZ
    dof rx
    limits (0.0 90.0)
  end
  begin
     id 23
     name lthumb
     direction 0.707107 -6.34961e-011 0.707107   
     length 0.835918   
     axis -90 45 2.85299e-015   XYZ
    dof rx rz
    limits (-45.0 45.0)
           (-45.0 45.0)
  end
  begin
     id 24 
     name rclavicle
     direction -0.932635 0.324218 -0.15835   
     length 3.65819  
     axis 0 0 0   XYZ 
    dof ry rz
    limits (-10.0 20.0)
           (-20.0 0.0)
  end
  begin
     id 25 
     name rhumerus
     direction -1 -4.48965e-011 -4.02296e-027  
     length 5.44729   
     axis 180 30 90   XYZ
    dof rx ry rz
    limits (-90.0 60.0)
           (-90.0 90.0)
           (-90.0 90.0)
  end
  begin
     id 26 
     name rradius
     direction -1 -4.48957e-011 -8.81087e-027   
     length 3.08821   
     axis 180 30 90   XYZ
    dof rx
    limits (-10.0 170.0)
  end
  begin
     id 27 
     name rwrist
     direction -1 -4.49015e-011 -1.24047e-026   
     length 1.5441   
     axis 9.05591e-015 -90 -90   XYZ
    dof ry
    limits (-180.0 0.0)
  end
  begin
     id 28
     name rhand
     direction -1 -4.4891e-011 -2.48094e-026   
     length 0.821049   
     axis 1.58305e-014 -90 -90   XYZ
    dof rx rz
    limits (-90.0 90.0)
           (-45.0 45.0)
  end
  begin
     id 29
     name rfingers
     direction -1 -4.48985e-011 -4.96187e-026   
     length 0.661951   
     axis 3.1661e-014 -90 -90   XYZ
    dof rx
    limits (0.0 90.0)
  end
  begin
     id 30
     name rthumb
     direction -0.707107 -6.34906e-011 0.707107   
     length 0.950433   
     axis -90 -45 -2.85299e-015   XYZ
    dof rx rz
    limits (-45.0 45.0)
           (-45.0 45.0)
  end
:hierarchy
  begin
    root lhipjoint rhipjoint lowerback
    lhipjoint lfemur
    lfemur ltibia
    ltibia lfoot
    lfoot ltoes
    rhipjoint rfemur
    rfemur rtibia
    rtibia rfoot
    rfoot rtoes
    lowerback upperback
    upperback thorax
    thorax lowerneck lclavicle rclavicle
    lowerneck upperneck
    upperneck head
    lclavicle lhumerus
    lhumerus lradius
    lradius lwrist
    lwrist lhand lthumb
    lhand lfingers
    rclavicle rhumerus
    rhumerus rradius
    rradius rwrist
    rwrist rhand rthumb
    rhand rfingers
  end

#!OML:ASF F:\VICON\USERDATA\INSTALL\rory3\rory3.ASF
:FULLY-SPECIFIED
:DEGREES
558
root 3.31454 17.7622 0.428634 -41.3685 88.8829 -41.9249
lowerback 2.00904 0.163138 3.07817
upperback -0.153413 0.280858 -0.928013
thorax -1.26464 0.116742 -2.68819
lowerneck -2.01006 -5.22773 -5.44551
upperneck 3.2047 -7.09936 8.8031
head 1.96449 -3.44208 3.66544
rclavicle 2.44754e-015 -6.55989e-015
rhumerus -36.0739 -12.503 -80.7895
rradius 25.5131
rwrist 14.3621
rhand -7.06558 8.65173
rfingers 7.12502
rthumb 18.8077 -20.459
lclavicle 2.44754e-015 -6.55989e-015
lhumerus -34.5545 -3.3922 86.0643
lradius 24.5177
lwrist 29.8675
lhand -10.959 9.61627
lfingers 7.12502
lthumb 15.06 39.0485
rfemur 0.375406 1.20198 19.7851
rtibia 13.7935
rfoot -15.81 -0.987146
rtoes -6.11924
lfemur 0 0 0
ltibia 0
lfoot 0 0
ltoes 0
559
root 3.31255 17.7622 0.428381 -41.8763 88.8941 -42.4221
lowerback 2.03983 0.156602 3.09348
upperback -0.177203 0.273547 -0.937227
thorax -1.30675 0.111879 -2.70633
lowerneck -1.97728 -5.22915 -5.42689
upperneck 3.23491 -7.10379 8.78161
head 1.96687 -3.44471 3.65485
rclavicle -1.14612e-015 1.39149e-015
rhumerus -36.0998 -12.3662 -80.853
rradius 25.5205
rwrist 14.2037
rhand -7.12423 8.59914
rfingers 7.12502
rthumb 18.7513 -20.5171
lclavicle -1.14612e-015 1.39149e-015
lhumerus -34.6523 -3.47782 86.0937
lradius 24.6274
lwrist 29.9312
lhand -10.9111 9.81694
lfingers 7.12502
lthumb 15.1061 39.2457
rfemur 0.402763 1.141 19.7849
rtibia 13.7454
rfoot -15.7696 -1.06126
rtoes -6.91816
lfemur 0 0 0
ltibia 0
lfoot 0 0
ltoes 0
560
root 3.31223 17.7636 0.42846 -41.7208 88.886 -42.227
lowerback 2.06701 0.152815 3.09236
upperback -0.168514 0.269334 -0.92923
thorax -1.31341 0.109817 -2.69745
lowerneck -1.98597 -5.23771 -5.41753
upperneck 3.26147 -7.11519 8.72882
head 1.97498 -3.45088 3.6338
rclavicle -6.52262e-017 3.97569e-016
rhumerus -36.0734 -12.3769 -80.82
rradius 25.4637
rwrist 14.2584
rhand -7.16963 8.64792
rfingers 7.12502
rthumb 18.7077 -20.4725
lclavicle -6.52262e-017 3.97569e-016
lhumerus -34.6737 -3.4887 86.1198
lradius 24.6605
lwrist 29.9676
lhand -10.8972 9.92491
lfingers 7.12502
lthumb 15.1195 39.3527
rfemur 0.424283 1.06488 19.7893
rtibia 13.7804
rfoot -15.6902 -1.17111
rtoes -8.30381
lfemur 0 0 0
ltibia 0
lfoot 0 0
ltoes 0
561
root 3.31568 17.7637 0.426733 -38.9124 88.9307 -39.3568
lowerback 2.07079 0.138244 3.05596
upperback -0.145069 0.248593 -0.961101
thorax -1.2929 0.10033 -2.70908
lowerneck -1.99953 -5.23654 -5.39889
upperneck 3.2962 -7.11496 8.70649
head 1.98688 -3.45015 3.62198
rclavicle 2.15557e-015 -1.98785e-016
rhumerus -36.0845 -12.4479 -80.7878
rradius 25.4356
rwrist 14.419
rhand -7.19918 8.73682
rfingers 7.12502
rthumb 18.6793 -20.3863
lclavicle 2.15557e-015 -1.98785e-016
lhumerus -34.6853 -3.52492 86.1187
lradius 24.6749
lwrist 30.04
lhand -10.9192 9.96048
lfingers 7.12502
lthumb 15.0984 39.3898
rfemur 0.435801 0.987655 19.6882
rtibia 13.9204
rfoot -15.7167 -1.06625
rtoes -8.5476
lfemur 0 0 0
ltibia 0
lfoot 0 0
ltoes 0
562
root 3.31808 17.7675 0.425126 -35.7369 88.9749 -36.178
lowerback 2.03869 0.131598 2.99532
upperback -0.143602 0.237132 -0.974824
thorax -1.27434 0.0953299 -2.68857
lowerneck -2.04327 -5.24174 -5.39207
upperneck 3.3316 -7.1217 8.67151
head 2.00497 -3.45273 3.60699
rclavicle 1.22066e-015 -3.97569e-016
rhumerus -36.1059 -12.3724 -80.7901
rradius 25.4285
rwrist 14.3762
rhand -7.22863 8.78274
rfingers 7.12502
rthumb 18.6509 -20.3431
lclavicle 1.22066e-015 -3.97569e-016
lhumerus -34.6917 -3.53546 86.1543
lradius 24.6701
lwrist 30.0646
lhand -10.9173 9.91838
lfingers 7.12502
lthumb 15.1001 39.3476
rfemur 0.349241 0.942497 19.5843
rtibia 14.0933
rfoot -15.8286 -0.977204
rtoes -7.98429
lfemur 0 0 0
ltibia 0
lfoot 0 0
ltoes 0
563
root 3.31749 17.7751 0.426344 -35.9622 88.9815 -36.4136
lowerback 2.0499 0.129288 2.96417
upperback -0.166421 0.233934 -0.960588
thorax -1.30444 0.0931498 -2.65641
lowerneck -2.04583 -5.23786 -5.40128
upperneck 3.36405 -7.11816 8.67793
head 2.01666 -3.45042 3.61096
rclavicle -3.67441e-015 -3.37934e-015
rhumerus -36.1523 -12.3041 -80.8007
rradius 25.439
rwrist 14.3121
rhand -7.31791 8.80687
rfingers 7.12502
rthumb 18.565 -20.3272
lclavicle -3.67441e-015 -3.37934e-015
lhumerus -34.7373 -3.57011 86.2001
lradius 24.6806
lwrist 30.0417
lhand -10.9389 9.92342
lfingers 7.12502
lthumb 15.0794 39.3542
rfemur 0.246958 0.993651 19.587
rtibia 14.2085
rfoot -15.868 -1.14346
rtoes -7.65664
lfemur 0 0 0
ltibia 0
lfoot 0 0
ltoes 0
